<svg width="20" height="20" viewBox="0 0 20 20" fill="none" xmlns="http://www.w3.org/2000/svg">
<path fill-rule="evenodd" clip-rule="evenodd" d="M2 4C3.10457 4 4 3.10457 4 2C4 0.895431 3.10457 0 2 0C0.895431 0 0 0.895431 0 2C0 3.10457 0.895431 4 2 4ZM18 4C19.1046 4 20 3.10457 20 2C20 0.895431 19.1046 0 18 0C16.8954 0 16 0.895431 16 2C16 3.10457 16.8954 4 18 4ZM4 18C4 19.1046 3.10457 20 2 20C0.895431 20 0 19.1046 0 18C0 16.8954 0.895431 16 2 16C3.10457 16 4 16.8954 4 18ZM18 20C19.1046 20 20 19.1046 20 18C20 16.8954 19.1046 16 18 16C16.8954 16 16 16.8954 16 18C16 19.1046 16.8954 20 18 20Z" fill="white"/>
</svg>
